<svg width="109" height="109" viewBox="0 0 109 109" fill="none" xmlns="http://www.w3.org/2000/svg">
<path fill-rule="evenodd" clip-rule="evenodd" d="M23.1864 15.4566H30.9148V31.9628H38.191H44.1925H45.9194V49.9688H38.191V39.6913H30.9148V49.9681H23.1864V39.6913H23.1855L23.1855 31.9628H23.1864V15.4566Z" fill="#D62222"/>
<path fill-rule="evenodd" clip-rule="evenodd" d="M61.8302 15.4566H69.5586V31.9628H76.8351H82.8366H84.5635V49.9688H76.8351V39.6913H69.5586V49.9681H61.8302V39.6913H61.8296L61.8296 31.9628H61.8302V15.4566Z" fill="#D62222"/>
<path fill-rule="evenodd" clip-rule="evenodd" d="M23.1864 57.9633H30.9148V74.4696H38.191H44.1925H45.9194V92.4756H38.191V82.198L30.9148 82.198V92.4748H23.1864V82.198H23.1855L23.1855 74.4696H23.1864V57.9633Z" fill="#D62222"/>
<path fill-rule="evenodd" clip-rule="evenodd" d="M61.8302 57.9633H69.5586V74.4696H76.8351H82.8366H84.5635V92.4756H76.8351V82.198L69.5586 82.198V92.4748H61.8302V82.198H61.8296L61.8296 74.4696H61.8302V57.9633Z" fill="#D62222"/>
<path fill-rule="evenodd" clip-rule="evenodd" d="M102.563 5.63498H5.63479V102.563H102.563V5.63498ZM0 0.000190735V108.198H108.198V0.000190735H0Z" fill="#D62222"/>
</svg>
