<svg width="31" height="37" viewBox="0 0 31 37" fill="none" xmlns="http://www.w3.org/2000/svg">
<mask id="mask0" mask-type="alpha" maskUnits="userSpaceOnUse" x="0" y="0" width="32" height="37">
<path d="M30.7313 17.0349C30.4634 16.5862 30.0135 16.3389 29.4555 16.3389C28.4196 16.3426 27.173 16.7534 26.2024 17.4102C25.3069 18.0161 24.0088 19.139 22.9132 21.0536C22.7075 21.4128 22.3701 21.6564 22.009 21.7142C22.0078 21.6309 22.0084 21.5358 22.0084 21.4464C22.0084 21.2537 22.009 21.025 22.0009 20.7727L22.738 6.9434C22.738 5.57255 21.6232 4.45772 20.2523 4.45772C18.8815 4.45772 17.7667 5.57255 17.7667 6.9434L17.0296 16.6496C17.0296 16.8205 16.8898 16.9603 16.7189 16.9603C16.548 16.9603 16.4082 16.8205 16.4082 16.6496V2.66767C16.4082 1.29682 15.2933 0.181992 13.9225 0.181992C12.5516 0.181992 11.4368 1.29682 11.4368 2.66767V16.6496C11.4368 16.8205 11.297 16.9603 11.1261 16.9603C10.9552 16.9603 10.8154 16.8205 10.8154 16.6496L10.194 5.53554C10.194 4.3362 9.21834 3.36057 8.019 3.36057C6.81966 3.36057 5.84403 4.3362 5.84403 5.53554L6.46545 17.8925C6.46545 18.0633 6.32563 18.2032 6.15474 18.2032C5.98385 18.2032 5.84403 18.0633 5.84403 17.8925L4.87813 10.8071C4.87813 9.60772 3.9025 8.63209 2.69694 8.63209C1.4976 8.63209 0.521973 9.60772 0.521973 10.8071L1.48912 27.0255C2.09066 35.7148 7.42057 36.8868 12.5554 36.8868C16.8096 36.8868 20.6307 34.7764 22.5149 31.4034C22.7572 31.0119 23.4128 29.9816 24.1902 28.7598C26.134 25.7068 27.7621 23.1416 28.0026 22.6855C28.5389 21.6701 29.1373 20.8765 29.7327 20.3906C30.2714 19.9506 30.6008 19.3895 30.8686 18.8967C31.0066 18.6406 31.1271 17.6992 30.7313 17.0349Z" fill="black"/>
</mask>
<g mask="url(#mask0)">
<circle cx="21.3826" cy="11.9275" r="24.9592" fill="#94DEAD"/>
<circle cx="25.7874" cy="7.52282" r="24.9592" fill="#73D38D"/>
<circle cx="29.9485" cy="0.512684" r="24.9592" fill="#5DCB78"/>
</g>
</svg>
