<svg width="44" height="42" viewBox="0 0 44 42" fill="none" xmlns="http://www.w3.org/2000/svg">
<path fill-rule="evenodd" clip-rule="evenodd" d="M43.8602 21.9377V22.2502H41.6858C41.6237 22.2502 40.9404 22.3127 40.257 23.1252L40.1327 23.2502L40.0706 23.1252C40.0706 23.1252 39.3251 22.3127 36.0946 22.2502C36.0946 22.2502 36.0946 22.3127 36.0946 22.3752C38.269 22.5002 39.3872 24.0627 39.4494 24.5627V24.6252C39.4494 24.7502 39.3872 24.8752 39.3251 24.8752C38.7038 25.0627 38.3932 25.5627 38.3932 25.5627L38.0205 26.2502L38.0826 25.5002C38.2068 24.6252 38.0826 23.8752 37.6477 23.3752C37.2128 22.8752 36.5295 22.6877 36.1567 22.6252C36.1567 23.0627 36.2189 23.4377 36.3431 23.5627L36.6537 23.7502H35.784C35.784 23.9377 35.7219 24.1877 35.7219 24.3752C36.5295 24.5627 37.0886 25.3127 37.0886 26.2502C37.0886 27.1252 36.6537 27.9377 35.7219 28.2502H36.1567C36.5295 28.2502 37.0265 27.7502 37.0886 27.6252L37.1507 27.3752L37.3371 27.5002C37.3371 27.5002 37.9584 28.1252 38.3311 28.2502L38.6417 28.3752L38.3311 28.5002C37.9584 28.6252 37.3371 29.2502 37.3371 29.2502L37.1507 29.3752L37.0886 29.1877C37.0265 29.0627 36.5295 28.5002 36.1567 28.5002H35.4734C36.281 28.9377 37.0265 29.9377 37.0265 31.0627C37.0265 32.6252 35.7219 33.3752 34.79 33.3752C33.7339 33.3752 32.9884 32.6877 32.9884 31.6252C32.9884 31.1877 33.1747 30.8127 33.4854 30.5627C33.796 30.3127 34.293 30.1877 34.7279 30.3127C35.4112 30.4377 35.7219 30.8127 35.7219 31.3752C35.7219 31.8127 35.4734 32.1252 35.0385 32.1877H34.9764C34.6657 32.1877 34.4794 31.9377 34.4794 31.6877C34.4794 31.3752 34.7279 31.1877 34.9764 31.1877C35.1627 31.1877 35.3491 31.3127 35.4112 31.5002V31.4377C35.4112 31.1877 35.3491 30.7502 34.6036 30.6252C34.2309 30.5627 33.8581 30.6252 33.6096 30.8752C33.3611 31.0627 33.2369 31.3752 33.2369 31.7502C33.2369 32.6252 33.8581 33.1877 34.7279 33.1877C35.5355 33.1877 36.6537 32.5627 36.6537 31.1877C36.6537 29.8127 35.5355 28.8127 34.6657 28.6877C34.5415 28.6877 34.3551 28.6877 34.2309 28.6877C33.5475 30.0002 32.6777 31.1877 31.6837 32.2502C30.6897 33.2502 29.5715 34.0627 28.329 34.7502C28.329 34.8752 28.329 35.0002 28.329 35.1252C28.3911 35.9377 29.3851 37.0627 30.814 37.0627C32.1807 37.0627 32.802 35.9377 32.802 35.1252C32.802 34.2502 32.2429 33.6252 31.3731 33.6252C31.0004 33.6252 30.7519 33.7502 30.5034 34.0002C30.317 34.2502 30.1927 34.6252 30.317 35.0002C30.4412 35.6877 30.814 35.7502 31.1246 35.7502H31.1867C31.0004 35.6877 30.8761 35.5002 30.8761 35.2502C30.8761 34.9377 31.1246 34.7502 31.3731 34.7502C31.6216 34.7502 31.8701 35.0002 31.8701 35.2502C31.8701 35.2502 31.8701 35.3127 31.8701 35.3752C31.808 35.7502 31.4974 36.0002 31.0004 36.0002C30.4412 36.0002 30.0685 35.6252 29.9442 35.0002C29.8821 34.5627 29.9442 34.0627 30.1927 33.7502C30.4412 33.4377 30.814 33.3127 31.2489 33.3127C32.305 33.3127 32.9884 34.0002 32.9884 35.0627C32.9884 36.0002 32.305 37.3127 30.6897 37.3127C29.5715 37.3127 28.5775 36.5627 28.1426 35.7502V36.4377C28.1426 36.8752 28.7017 37.3752 28.826 37.3752L29.0745 37.4377L28.8881 37.6252C28.8881 37.6252 28.329 38.2502 28.1426 38.6252L28.0184 38.9377L27.8941 38.6252C27.7699 38.3127 27.335 37.8127 27.1486 37.6252L26.9622 37.4377L27.2107 37.3752C27.335 37.3752 27.8941 36.8127 27.8941 36.4377V36.0002C27.5835 36.9377 26.7137 37.3752 25.9061 37.3752C25.0364 37.3752 24.2909 36.8752 24.1045 36.1252C23.9181 36.1252 23.6696 36.1877 23.4832 36.1877V36.8752L23.2347 36.5627C23.1105 36.4377 22.7377 36.3752 22.3029 36.3752C22.365 36.8127 22.5514 37.4377 23.0484 37.8752C23.4832 38.3127 24.2287 38.5002 25.1606 38.3127L25.9061 38.2502L25.2227 38.6252C25.2227 38.6252 24.6636 38.9377 24.4772 39.5627C24.4772 39.6252 24.353 39.6877 24.2287 39.6877C24.2287 39.6877 24.2287 39.6877 24.1666 39.6877C23.6696 39.6252 22.1165 38.5002 21.9922 36.3127C21.9922 36.3127 21.9301 36.3127 21.868 36.3127C21.868 39.5002 22.7377 40.2502 22.7377 40.2502L22.862 40.3752L22.7377 40.5002C21.9301 41.1877 21.868 41.8752 21.868 41.9377H21.5574C21.5574 41.8752 21.4952 41.1877 20.6876 40.5002L20.5634 40.3752L20.6876 40.2502C20.6876 40.2502 21.5574 39.5002 21.5574 36.3127H21.4952C21.371 38.5002 19.8179 39.6252 19.3209 39.6877H19.2587C19.1345 39.6877 19.0724 39.6252 19.0102 39.5627C18.8239 38.9377 18.2647 38.6252 18.2647 38.6252L17.5814 38.2502L18.3269 38.3127C19.1966 38.4377 19.9421 38.3127 20.4391 37.8752C20.9361 37.3752 21.1225 36.7502 21.1846 36.3752C20.7497 36.3752 20.377 36.4377 20.2527 36.5627L20.1906 36.8752V36.1252C20.0042 36.1252 19.7557 36.0627 19.5694 36.0627C19.383 36.8127 18.6996 37.3127 17.7677 37.3127C16.898 37.3127 16.0904 36.8752 15.7797 35.9377V36.3752C15.7797 36.8127 16.3389 37.3127 16.4631 37.3127L16.7116 37.3752L16.5252 37.5627C16.5252 37.5627 15.9661 38.1877 15.7797 38.5627L15.6555 38.8752L15.5312 38.5627C15.407 38.1877 14.7857 37.6252 14.7857 37.5627L14.5994 37.3752L14.8479 37.3127C14.9721 37.3127 15.4691 36.7502 15.4691 36.3752V35.6877C15.0342 36.5002 14.1024 37.2502 12.922 37.2502C11.3067 37.2502 10.6234 35.9377 10.6234 35.0002C10.6234 33.9377 11.3067 33.2502 12.3629 33.2502C12.7977 33.2502 13.1705 33.3752 13.419 33.6877C13.6675 34.0002 13.7917 34.5002 13.6675 34.9377C13.5432 35.5627 13.1705 35.9377 12.5492 35.9377C12.1144 35.9377 11.8037 35.6877 11.7416 35.3127C11.7416 35.3127 11.7416 35.2502 11.7416 35.1877C11.7416 34.9377 11.9901 34.6877 12.2386 34.6877C12.5492 34.6877 12.7356 34.9377 12.7356 35.1877C12.7356 35.3752 12.6114 35.5627 12.425 35.6877H12.4871C12.7977 35.6877 13.1705 35.6252 13.2947 34.9377C13.3569 34.5627 13.2947 34.1877 13.1084 33.9377C12.922 33.6877 12.6114 33.5627 12.2386 33.5627C11.3689 33.5627 10.8097 34.1877 10.8097 35.0627C10.8097 35.8752 11.431 37.0002 12.7977 37.0002C14.1645 37.0002 15.1585 35.8752 15.2827 35.0627C15.2827 34.9377 15.2827 34.8127 15.2827 34.6877C14.0402 34.0002 12.8599 33.1877 11.8659 32.1877C10.8719 31.1877 10.0021 29.9377 9.31874 28.6252C9.1945 28.6252 9.00812 28.6252 8.88387 28.6252C8.07624 28.7502 6.89587 29.7502 6.89587 31.1252C6.89587 32.5002 8.01412 33.1252 8.82174 33.1252C9.69149 33.1252 10.3127 32.5627 10.3127 31.6877C10.3127 31.3127 10.1885 31.0627 9.93999 30.8127C9.69149 30.5627 9.31874 30.5002 8.94599 30.5627C8.26262 30.6877 8.13837 31.1252 8.13837 31.3752V31.4377C8.2005 31.2502 8.38687 31.1252 8.57325 31.1252C8.88387 31.1252 9.07024 31.3752 9.07024 31.6252C9.07024 31.8752 8.88387 32.1252 8.63537 32.1252H8.57325C8.13837 32.0627 7.952 31.7502 7.952 31.3127C7.952 30.7502 8.26262 30.3752 8.94599 30.2502C9.38087 30.1252 9.81574 30.2502 10.1885 30.5002C10.4991 30.7502 10.6234 31.1252 10.6234 31.5627C10.6234 32.6252 9.93999 33.3127 8.82174 33.3127C7.95199 33.3127 6.58525 32.5627 6.58525 31.0002C6.58525 29.8752 7.33075 28.8752 8.13837 28.4377H7.455C7.08225 28.4377 6.58525 29.0002 6.52312 29.1252L6.461 29.3127L6.27462 29.1877C6.27462 29.1877 5.65337 28.6252 5.28062 28.4377L4.97 28.3127L5.28062 28.1877C5.65337 28.0627 6.27462 27.4377 6.27462 27.4377L6.461 27.3127L6.52312 27.5627C6.58525 27.6877 7.08225 28.1877 7.455 28.1877H7.88987C6.958 27.8752 6.58525 27.0627 6.58525 26.1877C6.58525 25.2502 7.14437 24.5002 7.88987 24.3127C7.88987 24.1252 7.82775 23.8752 7.82775 23.6877H6.958L7.26862 23.4377C7.39287 23.3127 7.455 22.9377 7.51712 22.5002C7.08225 22.5627 6.461 22.7502 6.02612 23.2502C5.59125 23.7502 5.40487 24.4377 5.52912 25.3752L5.65337 26.1252L5.28062 25.4377C5.28062 25.4377 4.97 24.9377 4.34875 24.7502C4.28662 24.7502 4.16237 24.6252 4.16237 24.5002C4.16237 24.5002 4.16237 24.5002 4.16237 24.4377C4.2245 23.9377 5.40487 22.3752 7.51712 22.2502C7.51712 22.1877 7.51712 22.1877 7.51712 22.1252C4.28662 22.1252 3.60325 23.0002 3.54112 23.0002L3.479 23.1252L3.35475 23.0002C2.67137 22.1877 1.988 22.1252 1.92587 22.1252H0V21.8127H2.17437C2.2365 21.8127 2.91987 21.7502 3.60325 20.9377L3.7275 20.8127L3.78962 20.9377C3.78962 20.9377 4.53512 21.7502 7.76562 21.8127V21.7502C5.59125 21.6877 4.473 20.1252 4.34875 19.6252C4.34875 19.6252 4.34875 19.6252 4.34875 19.5627C4.34875 19.4377 4.41087 19.3752 4.53512 19.3127C5.15637 19.1252 5.467 18.5627 5.467 18.5627L5.83975 17.8752L5.7155 18.6252C5.59125 19.5627 5.77762 20.2502 6.2125 20.7502C6.64737 21.2502 7.33075 21.4377 7.7035 21.5002C7.7035 21.0627 7.64137 20.6877 7.455 20.6252L7.14437 20.3752H8.07625C8.07625 20.1877 8.13837 19.9377 8.13837 19.8127C7.33075 19.6252 6.77162 18.8752 6.77162 17.9377C6.77162 17.0627 7.2065 16.2502 8.07625 15.9377H7.64137C7.26862 15.9377 6.77162 16.4377 6.7095 16.6252L6.64737 16.8127L6.461 16.6877C6.27462 16.5002 5.77762 16.0627 5.467 15.9377L5.15637 15.8127L5.467 15.6252C5.83975 15.5002 6.461 14.8752 6.461 14.8752L6.64737 14.7502L6.7095 15.0002C6.77162 15.1252 7.26862 15.6252 7.64137 15.6252H8.32474C7.51712 15.1877 6.77162 14.2502 6.77162 13.0627C6.77162 11.4377 8.07625 10.7502 9.00812 10.7502C10.0642 10.7502 10.8097 11.4377 10.8097 12.5002C10.8097 12.9377 10.6234 13.3127 10.3749 13.5627C10.0021 13.8752 9.56724 13.9377 9.13237 13.8752C8.44899 13.7502 8.13837 13.3752 8.13837 12.7502C8.13837 12.3127 8.38687 12.0002 8.75962 11.9377H8.82174C9.07024 11.9377 9.25662 12.1877 9.25662 12.4377C9.25662 12.7502 9.00812 12.9377 8.75962 12.9377C8.57325 12.9377 8.38687 12.8127 8.32474 12.6252C8.32474 12.6252 8.32474 12.6252 8.32474 12.6877C8.32474 13.0002 8.38687 13.3752 9.13237 13.5002C9.50512 13.5627 9.87787 13.5002 10.1264 13.3127C10.3749 13.1252 10.4991 12.8127 10.4991 12.4377C10.4991 11.5627 9.93999 10.9377 9.00812 10.9377C8.20049 10.9377 7.08225 11.5627 7.08225 13.0002C7.08225 14.3752 8.26262 15.3752 9.07024 15.5002C9.31874 15.5002 9.50512 15.5002 9.62937 15.5002C10.3127 14.3127 11.1204 13.2502 12.0522 12.2502C13.0462 11.2502 14.1645 10.4377 15.407 9.7502C15.407 9.5627 15.407 9.3127 15.407 9.0627C15.3449 8.2502 14.3509 7.1252 12.922 7.1252C11.5552 7.1252 10.934 8.2502 10.934 9.0627C10.934 9.9377 11.4931 10.5002 12.3629 10.5002C12.7356 10.5002 12.9841 10.3752 13.2326 10.1252C13.419 9.8752 13.5432 9.5002 13.419 9.1252C13.2947 8.4377 12.922 8.3752 12.6114 8.3752C12.6114 8.3752 12.6114 8.3752 12.5492 8.3752C12.7356 8.4377 12.8599 8.6252 12.8599 8.8127C12.8599 9.1252 12.6114 9.3127 12.3629 9.3127C12.0522 9.3127 11.8659 9.0627 11.8659 8.8127C11.8659 8.8127 11.8659 8.7502 11.8659 8.6877C11.928 8.3127 12.2386 8.0627 12.6735 8.0627C13.2326 8.0627 13.6054 8.4377 13.7917 9.0627C13.8539 9.5002 13.7917 10.0002 13.5432 10.3127C13.2947 10.6252 12.922 10.7502 12.4871 10.7502C11.431 10.7502 10.7476 10.0627 10.7476 9.0002C10.7476 8.0627 11.431 6.7502 13.0462 6.7502C14.1645 6.7502 15.1585 7.5002 15.5934 8.3127V7.6252C15.5934 7.1877 15.0964 6.6877 14.9721 6.6877L14.7236 6.6252L14.91 6.4377C14.91 6.4377 15.4691 5.8127 15.6555 5.4377L15.7797 5.1252L15.904 5.4377C16.0282 5.8127 16.6495 6.3752 16.6495 6.4377L16.8359 6.6252L16.5874 6.6877C16.4631 6.6877 15.904 7.2502 15.904 7.6252V8.0627C16.2146 7.1252 17.0844 6.6877 17.892 6.6877C18.886 6.6877 19.6315 7.3127 19.7557 8.1877C19.9421 8.1877 20.1906 8.1252 20.3149 8.1252V7.1252L20.5634 7.4377C20.6876 7.5627 21.0604 7.6252 21.4952 7.6252C21.4331 7.1877 21.2467 6.5627 20.7497 6.1252C20.2527 5.6877 19.5694 5.5002 18.6375 5.6877L17.892 5.7502L18.5754 5.3752C18.5754 5.3752 19.1345 5.0627 19.3209 4.4377C19.3209 4.3752 19.4451 4.3127 19.5694 4.3127H19.6315C20.1285 4.3752 21.6816 5.5002 21.8059 7.6877H21.868C21.868 4.5002 21.0604 3.7502 20.9982 3.7502L20.874 3.6252L20.9982 3.5002C21.8059 2.8127 21.868 2.1252 21.868 2.0627V0.000198364H22.1786V2.1877C22.1786 2.2502 22.2407 2.9377 23.0484 3.6252L23.1726 3.7502L23.0484 3.8752C23.0484 3.8752 22.1786 4.6252 22.1786 7.8127C22.2407 7.8127 22.2407 7.8127 22.3029 7.8127C22.4271 5.6252 23.9802 4.5002 24.4772 4.4377H24.5394C24.6636 4.4377 24.7879 4.5002 24.7879 4.5627C24.9742 5.1877 25.4712 5.5002 25.5334 5.5002L26.0925 5.8752L25.347 5.8127C24.4772 5.6877 23.7317 5.8127 23.2347 6.2502C22.7377 6.6877 22.5514 7.3752 22.4892 7.7502C22.9241 7.7502 23.2969 7.6877 23.4211 7.5627L23.6696 7.2502V8.2502C23.856 8.2502 24.0424 8.3127 24.2287 8.3127C24.353 7.4377 25.0985 6.8127 26.0925 6.8127C26.9622 6.8127 27.7699 7.2502 28.0805 8.1877V7.7502C28.0805 7.3127 27.5214 6.8127 27.3971 6.8127L27.1486 6.7502L27.335 6.5627C27.4592 6.3752 27.9562 5.8752 28.0805 5.5627L28.2047 5.2502L28.329 5.5627C28.4532 5.9377 29.0745 6.5002 29.0745 6.5627L29.2609 6.7502L29.0124 6.8127C28.8881 6.8127 28.329 7.3752 28.329 7.7502V8.4377C28.7639 7.6252 29.7579 6.8752 30.8761 6.8752C32.4914 6.8752 33.1747 8.1877 33.1747 9.1252C33.1747 10.1877 32.4914 10.8752 31.4352 10.8752C31.0004 10.8752 30.6276 10.7502 30.3791 10.4377C30.1306 10.1252 30.0064 9.6252 30.1306 9.1877C30.2549 8.5627 30.6276 8.1877 31.1867 8.1877C31.6216 8.1877 31.9322 8.4377 32.0565 8.8127C32.0565 8.8127 32.0565 8.8752 32.0565 8.9377C32.0565 9.1877 31.808 9.4377 31.5595 9.4377C31.2489 9.4377 31.0625 9.1877 31.0625 8.9377C31.0625 8.7502 31.1867 8.5627 31.3731 8.5002H31.311C31.0625 8.5002 30.6276 8.5627 30.5034 9.2502C30.4412 9.6252 30.5034 10.0002 30.6897 10.2502C30.8761 10.5002 31.1867 10.6252 31.5595 10.6252C32.4292 10.6252 32.9884 10.0627 32.9884 9.1877C32.9884 8.3752 32.3671 7.2502 31.0004 7.2502C29.6336 7.2502 28.6396 8.3752 28.5154 9.1877C28.5154 9.4377 28.5154 9.6252 28.5154 9.8752C29.7579 10.5627 30.8761 11.3752 31.8701 12.3752C32.802 13.3127 33.6717 14.4377 34.293 15.6252C34.4794 15.6252 34.6657 15.6252 34.8521 15.6252C35.7219 15.5627 36.8401 14.5627 36.8401 13.1252C36.8401 11.7502 35.7219 11.0627 34.9142 11.0627C34.0445 11.0627 33.4232 11.6877 33.4232 12.5627C33.4232 12.9377 33.5475 13.1877 33.796 13.4377C34.0445 13.6252 34.4172 13.7502 34.79 13.6252C35.4734 13.5002 35.5976 13.1252 35.5976 12.8127C35.5976 12.8127 35.5976 12.8127 35.5976 12.7502C35.5355 12.9377 35.3491 13.0627 35.1627 13.0627C34.8521 13.0627 34.6657 12.8127 34.6657 12.5627C34.6657 12.2502 34.8521 12.0627 35.1627 12.0627H35.2249C35.6597 12.1252 35.9082 12.4377 35.9082 12.8752C35.9082 13.4377 35.5355 13.8127 34.9142 14.0002C34.4794 14.0627 34.0445 14.0002 33.6717 13.6877C33.3611 13.4377 33.1747 13.0627 33.1747 12.6252C33.1747 11.5627 33.9202 10.8752 34.9764 10.8752C35.9082 10.8752 37.2129 11.5627 37.2129 13.1877C37.2129 14.3127 36.4674 15.3127 35.6597 15.7502H36.3431C36.7159 15.7502 37.2129 15.2502 37.275 15.1252L37.3371 14.8752L37.5235 15.0002C37.5235 15.0002 38.1447 15.6252 38.5175 15.7502L38.8281 15.8752L38.5175 16.0002C38.2069 16.1252 37.7099 16.5627 37.5235 16.7502L37.3371 16.8752L37.275 16.6877C37.2129 16.5627 36.7159 16.0002 36.3431 16.0002H35.9082C36.8401 16.3127 37.275 17.1877 37.275 18.0002C37.275 18.9377 36.7159 19.6877 35.9082 19.8752C35.9082 20.0627 35.9704 20.2502 35.9704 20.4377H36.6537L36.3431 20.6877C36.2189 20.7502 36.1567 21.1877 36.1567 21.5627C36.5295 21.5002 37.2128 21.3752 37.6477 20.8127C38.0826 20.3127 38.2068 19.6252 38.0826 18.6877L38.0205 17.9377L38.3932 18.6252C38.3932 18.6252 38.7038 19.1877 39.3251 19.3752C39.3872 19.3752 39.4494 19.4377 39.4494 19.6252V19.6877C39.3872 20.1877 38.2068 21.7502 36.0946 21.9377V22.0002C39.3251 22.0002 40.0706 21.1252 40.0706 21.1252L40.1327 21.0002L40.257 21.1252C40.9404 21.9377 41.6237 22.0002 41.6858 22.0002L43.8602 21.9377ZM24.4772 8.4377C24.7257 8.4377 24.9121 8.5002 25.1606 8.5627C25.2227 8.1252 25.5955 7.8752 26.0304 7.8752C26.4031 7.8752 26.9622 8.2502 26.9622 9.0002V9.0627C27.2729 9.1877 27.5835 9.3127 27.8941 9.5002C27.8941 9.3127 27.9562 9.1877 27.9562 9.0002C27.9562 7.6252 26.9622 7.1252 26.1546 7.1252C25.1606 7.1252 24.6015 7.7502 24.4772 8.4377ZM26.1546 8.8127C26.341 8.8752 26.5274 8.9377 26.6516 9.0002C26.6516 8.3752 26.2167 8.1252 25.9682 8.1252C25.9682 8.1252 25.9682 8.1252 25.9061 8.1252C26.0304 8.1877 26.1546 8.3752 26.1546 8.5627C26.2167 8.6877 26.2167 8.7502 26.1546 8.8127ZM34.4794 16.0627C34.6036 16.3752 34.79 16.6877 34.9142 17.0002C35.7219 17.0002 36.0325 17.5627 36.0325 17.9377C36.0325 18.3127 35.8461 18.6877 35.4734 18.7502C35.4734 18.9377 35.5355 19.1877 35.5976 19.4377C36.2189 19.3127 36.778 18.7502 36.778 17.8752C36.778 17.0002 36.281 16.0627 34.9142 16.0627C34.79 16.0627 34.6657 16.0627 34.4794 16.0627ZM35.0385 17.3127C35.1006 17.4377 35.1627 17.6252 35.1627 17.7502C35.2249 17.7502 35.2248 17.7502 35.287 17.7502C35.4734 17.7502 35.6597 17.8127 35.7219 18.0002V17.9377C35.784 17.7502 35.5355 17.3127 35.0385 17.3127ZM35.6597 24.6877C35.5976 24.9377 35.5976 25.1252 35.5355 25.3752C35.9082 25.5002 36.0325 25.8127 36.0325 26.1877C36.0325 26.6252 35.7219 27.1252 34.9764 27.1252C34.8521 27.4377 34.7279 27.7502 34.5415 28.0627C34.6657 28.0627 34.7279 28.0627 34.8521 28.0627C36.2189 28.0627 36.7159 27.0627 36.7159 26.2502C36.778 25.3752 36.281 24.8127 35.6597 24.6877ZM35.2249 26.3752C35.2249 26.5002 35.1627 26.6877 35.1006 26.8127C35.5355 26.7502 35.7219 26.3752 35.7219 26.1252C35.6597 26.2502 35.5355 26.3752 35.2249 26.3752ZM27.8941 34.8752C27.5835 35.0002 27.2729 35.1877 26.9622 35.3127C26.9001 36.0002 26.4031 36.2502 26.0304 36.2502C25.7197 36.2502 25.4091 36.1252 25.2849 35.8127C25.0364 35.8752 24.85 35.9377 24.6015 35.9377C24.7879 36.5002 25.347 36.9377 26.1546 36.9377C27.0244 36.9377 27.9562 36.4377 27.9562 35.0627C27.9562 35.0627 27.9562 34.9377 27.8941 34.8752ZM26.6516 35.4377C26.5274 35.5002 26.4031 35.5002 26.2167 35.5627C26.2167 35.7502 26.0925 35.8752 25.9682 36.0002C25.9682 36.0002 25.9682 36.0002 26.0304 36.0002C26.2167 36.0002 26.5274 35.8127 26.6516 35.4377ZM19.3209 36.0002C19.0724 36.0002 18.886 35.9377 18.6375 35.8752C18.5132 36.1877 18.2026 36.3127 17.892 36.3127C17.5192 36.3127 17.0222 36.0002 16.9601 35.3752C16.5874 35.2502 16.2767 35.1252 15.9661 34.9377C15.9661 35.0002 15.9661 35.0627 15.9661 35.1877C15.9661 36.5627 16.9601 37.0627 17.7677 37.0627C18.5754 37.0002 19.1345 36.5627 19.3209 36.0002ZM17.6435 35.5627C17.5192 35.5002 17.3329 35.5002 17.2086 35.4377C17.2707 35.8752 17.6435 36.0002 17.8299 36.0002C17.8299 36.0002 17.8299 36.0002 17.892 36.0002C17.7677 35.8752 17.6435 35.7502 17.6435 35.5627ZM9.25662 28.0627C9.13237 27.7502 9.00812 27.4377 8.82174 27.1252C8.13837 27.1252 7.82775 26.5627 7.82775 26.1877C7.82775 25.8752 7.95199 25.5002 8.32474 25.3752C8.32474 25.1877 8.26262 24.9377 8.20049 24.6877C7.64137 24.8127 7.08225 25.3752 7.08225 26.2502C7.08225 27.1252 7.51712 28.0627 8.94599 28.0627C9.00812 28.1252 9.13237 28.0627 9.25662 28.0627ZM8.75962 26.8127C8.69749 26.6877 8.63537 26.5002 8.63537 26.3752H8.57325C8.38687 26.3752 8.2005 26.2502 8.13837 26.1252C8.07625 26.3752 8.26262 26.7502 8.75962 26.8127ZM8.26262 19.4377C8.26262 19.1877 8.32474 19.0002 8.38687 18.7502C7.95199 18.6877 7.82775 18.3127 7.82775 17.9377C7.82775 17.5002 8.20049 17.0002 8.94599 17.0002C9.07024 16.6877 9.1945 16.3752 9.38087 16.0627C9.25662 16.0627 9.13237 16.0627 8.94599 16.0627C7.57925 16.0627 7.08225 17.0627 7.08225 17.8752C7.08225 18.7502 7.64137 19.3127 8.26262 19.4377ZM8.69749 17.7502C8.75962 17.6252 8.75962 17.4377 8.82174 17.3127C8.26262 17.3127 8.07625 17.7502 8.07625 18.0002C8.07625 18.0002 8.07625 18.0002 8.07625 18.0627C8.13837 17.8752 8.32475 17.8127 8.51112 17.8127C8.57325 17.7502 8.63537 17.7502 8.69749 17.7502ZM15.9661 9.5002C16.2767 9.3752 16.5874 9.1877 16.898 9.0627V9.0002C16.898 8.1877 17.4571 7.8752 17.8299 7.8752C18.2026 7.8752 18.6375 8.0627 18.6375 8.5627C18.886 8.5627 19.0724 8.5002 19.3209 8.4377C19.1966 7.8127 18.6996 7.1877 17.7056 7.1877C16.8359 7.1877 15.904 7.6877 15.904 9.0627C15.9661 9.1877 15.9661 9.3127 15.9661 9.5002ZM17.2086 9.0002C17.395 8.9377 17.5814 8.8752 17.7056 8.8127C17.7056 8.7502 17.7056 8.6877 17.7056 8.6252C17.7056 8.4377 17.7677 8.2502 17.9541 8.1877C17.9541 8.1877 17.9541 8.1877 17.892 8.1877C17.6435 8.1252 17.2086 8.3752 17.2086 9.0002ZM21.9301 8.8752C25.5955 8.8752 28.9502 10.3752 31.311 12.8127C33.7339 15.2502 35.2249 18.5627 35.2249 22.2502C35.2249 25.9377 33.7339 29.3127 31.311 31.6877C28.9502 34.1252 25.5955 35.6252 21.9301 35.6252C18.2647 35.6252 14.9721 34.1252 12.5492 31.6877C10.1264 29.3127 8.63537 25.9377 8.63537 22.2502C8.63537 18.5627 10.1264 15.2502 12.5492 12.8127C14.9721 10.3127 18.2647 8.8752 21.9301 8.8752ZM31.1246 12.9377C28.7639 10.5627 25.4712 9.1252 21.868 9.1252C18.2647 9.1252 15.0342 10.5627 12.6114 12.9377C10.2506 15.3127 8.82174 18.6252 8.82174 22.2502C8.82174 25.8752 10.2506 29.1877 12.6114 31.5627C14.9721 33.9377 18.2647 35.4377 21.868 35.4377C25.4712 35.4377 28.7639 33.9377 31.1246 31.5627C33.4854 29.1877 34.9764 25.8752 34.9764 22.2502C34.9764 18.5627 33.4854 15.3127 31.1246 12.9377ZM31.6216 12.4377C29.1366 9.9377 25.7197 8.3752 21.868 8.3752C18.0784 8.3752 14.6615 9.9377 12.1765 12.4377C9.69149 14.9377 8.13837 18.3752 8.13837 22.1877C8.13837 26.0002 9.69149 29.4377 12.1765 32.0002C14.6615 34.5002 18.0784 36.0002 21.868 36.0002C25.6576 36.0002 29.0745 34.4377 31.6216 32.0002C34.1066 29.5002 35.5976 26.0627 35.5976 22.1877C35.6597 18.3752 34.1066 14.9377 31.6216 12.4377Z" fill="white"/>
<path d="M22.241 28.5627V28.1252C21.744 28.1252 21.3713 28.0627 21.1228 28.0002C20.8743 27.9377 20.6879 27.8127 20.5637 27.5627C20.4394 27.3752 20.3773 27.0627 20.3773 26.7502V21.8752H22.9865C23.3593 21.8752 23.732 21.9377 24.0427 22.0627C24.3533 22.1877 24.6018 22.4377 24.726 22.8127C24.9124 23.1877 24.9745 23.6252 24.9745 24.2502H25.4094V19.1252H24.9745C24.9745 19.6252 24.9124 20.0002 24.8503 20.3127C24.726 20.6252 24.6018 20.8127 24.4154 21.0002C24.229 21.1252 24.0427 21.2502 23.7942 21.3127C23.5457 21.3752 23.2972 21.3752 22.9865 21.3752H20.3773V17.0002C20.3773 16.6252 20.5015 16.3127 20.6879 16.1252C20.8743 15.9377 21.1849 15.8127 21.6198 15.8127H23.4835C23.9184 15.8127 24.3533 15.8752 24.726 16.0002C25.0988 16.1252 25.4715 16.2502 25.7822 16.4377C26.0928 16.6252 26.4034 16.8127 26.6519 17.0627C26.9004 17.3127 27.1489 17.5627 27.3353 17.8127C27.5217 18.0627 27.708 18.3127 27.8323 18.5002L28.0808 18.3752L26.7761 15.3752H17.5195V15.8127C17.8923 15.8127 18.2029 15.8127 18.3893 15.8752C18.6378 15.9377 18.762 16.0002 18.8863 16.1252C19.0105 16.2502 19.0727 16.3752 19.1348 16.5002C19.1969 16.6252 19.1969 16.8127 19.1969 17.0002V26.6877C19.1969 26.9377 19.1969 27.1877 19.1348 27.3752C19.0727 27.5627 19.0105 27.6877 18.8863 27.8127C18.762 27.9377 18.5757 28.0002 18.3893 28.0002C18.1408 28.0627 17.8923 28.0627 17.5195 28.0627V28.5002H22.241V28.5627Z" fill="white"/>
</svg>
