<svg width="162" height="47" viewBox="0 0 162 47" fill="none" xmlns="http://www.w3.org/2000/svg">
<path d="M161.252 0.600708L156.399 0.715822L146.201 26.5682H151.009L161.252 0.600708Z" fill="url(#paint0_linear)"/>
<path d="M148.878 0.894204L153.731 0.77909L143.558 26.5682H138.751L148.878 0.894204Z" fill="url(#paint1_linear)"/>
<path d="M146.21 0.957519L0.422363 4.41565V26.5682H136.108L146.21 0.957519Z" fill="url(#paint2_linear)"/>
<path d="M15.7874 23.5127L12.2359 18.8148C12.0868 18.8301 11.8633 18.8377 11.5653 18.8377H7.64124V23.5127H4.4126V7.47117H11.5653C13.072 7.47117 14.38 7.70033 15.4893 8.15866C16.6152 8.61699 17.4762 9.27393 18.0723 10.1295C18.6683 10.985 18.9663 12.001 18.9663 13.1774C18.9663 14.3843 18.6435 15.4232 17.9977 16.294C17.3686 17.1648 16.4579 17.8141 15.2658 18.2419L19.2644 23.5127H15.7874ZM15.7129 13.1774C15.7129 12.1538 15.3486 11.367 14.6201 10.817C13.8916 10.267 12.8236 9.99198 11.4163 9.99198H7.64124V16.3857H11.4163C12.8236 16.3857 13.8916 16.1107 14.6201 15.5607C15.3486 14.9954 15.7129 14.201 15.7129 13.1774Z" fill="white"/>
<path d="M35.6173 21.0148V23.5127H22.5786V7.47117H35.2696V9.96907H25.8072V14.1399H34.2017V16.5919H25.8072V21.0148H35.6173Z" fill="white"/>
<path d="M50.492 19.8002H41.7995L40.0858 23.5127H36.7578L44.5811 7.47117H47.7601L55.6082 23.5127H52.2305L50.492 19.8002ZM49.4241 17.4628L46.1457 10.4503L42.8923 17.4628H49.4241Z" fill="white"/>
<path d="M65.6234 23.7419C63.8683 23.7419 62.2788 23.3905 60.8549 22.6877C59.4475 21.9697 58.3382 20.9843 57.5269 19.7315C56.7322 18.4787 56.3348 17.0655 56.3348 15.4919C56.3348 13.9183 56.7405 12.5052 57.5518 11.2524C58.3631 9.99962 59.4724 9.02185 60.8797 8.31908C62.3037 7.60103 63.8931 7.242 65.6482 7.242C67.0721 7.242 68.3719 7.47117 69.5474 7.9295C70.723 8.38783 71.7164 9.05241 72.5277 9.92323L70.4415 11.7336C69.1832 10.4809 67.6351 9.85448 65.7972 9.85448C64.6051 9.85448 63.5372 10.0989 62.5934 10.5878C61.6496 11.0614 60.9129 11.726 60.383 12.5815C59.8532 13.4371 59.5883 14.4072 59.5883 15.4919C59.5883 16.5766 59.8532 17.5468 60.383 18.4023C60.9129 19.2579 61.6496 19.9301 62.5934 20.419C63.5372 20.8926 64.6051 21.1294 65.7972 21.1294C67.6351 21.1294 69.1832 20.4954 70.4415 19.2273L72.5277 21.0606C71.7164 21.9315 70.7147 22.596 69.5226 23.0544C68.347 23.5127 67.0473 23.7419 65.6234 23.7419Z" fill="white"/>
<path d="M78.9539 9.99198H73.1921V7.47117H87.9445V9.99198H82.1826V23.5127H78.9539V9.99198Z" fill="white"/>
<path d="M90.3675 7.47117H93.5962V23.5127H90.3675V7.47117Z" fill="white"/>
<path d="M114.072 7.47117L106.497 23.5127H103.318L95.7185 7.47117H99.2203L105.007 19.8461L110.843 7.47117H114.072Z" fill="white"/>
<path d="M128.945 21.0148V23.5127H115.907V7.47117H128.598V9.96907H119.135V14.1399H127.53V16.5919H119.135V21.0148H128.945Z" fill="white"/>
<path d="M7.52523 30.3877C9.06504 30.3877 10.3979 30.6245 11.5238 31.0981C12.6662 31.5717 13.5438 32.2439 14.1564 33.1147C14.769 33.9856 15.0753 35.0168 15.0753 36.2085C15.0753 37.3848 14.769 38.4161 14.1564 39.3022C13.5438 40.173 12.6662 40.8452 11.5238 41.3188C10.3979 41.7772 9.06504 42.0063 7.52523 42.0063H4.02339V46.4292H0V30.3877H7.52523ZM7.30171 38.9813C8.51038 38.9813 9.4293 38.7445 10.0585 38.2709C10.6876 37.7821 11.0022 37.0946 11.0022 36.2085C11.0022 35.3071 10.6876 34.6196 10.0585 34.146C9.4293 33.6571 8.51038 33.4126 7.30171 33.4126H4.02339V38.9813H7.30171Z" fill="white"/>
<path d="M29.0244 46.4292L25.6716 41.9605H21.9711V46.4292H17.9477V30.3877H25.4729C27.0127 30.3877 28.3456 30.6245 29.4715 31.0981C30.6139 31.5717 31.4915 32.2439 32.1041 33.1147C32.7167 33.9856 33.023 35.0168 33.023 36.2085C33.023 37.4001 32.7084 38.4313 32.0792 39.3022C31.4666 40.1577 30.5891 40.8147 29.4466 41.273L33.3459 46.4292H29.0244ZM28.9499 36.2085C28.9499 35.3071 28.6353 34.6196 28.0062 34.146C27.377 33.6571 26.4581 33.4126 25.2494 33.4126H21.9711V39.0043H25.2494C26.4581 39.0043 27.377 38.7598 28.0062 38.2709C28.6353 37.7821 28.9499 37.0946 28.9499 36.2085Z" fill="white"/>
<path d="M44.63 46.7042C42.8253 46.7042 41.1944 46.3452 39.7374 45.6271C38.2969 44.9091 37.1627 43.9237 36.3349 42.6709C35.5236 41.4029 35.1179 39.982 35.1179 38.4084C35.1179 36.8348 35.5236 35.4217 36.3349 34.1689C37.1627 32.9008 38.2969 31.9078 39.7374 31.1897C41.1944 30.4717 42.8253 30.1127 44.63 30.1127C46.4347 30.1127 48.0573 30.4717 49.4978 31.1897C50.9383 31.9078 52.0724 32.9008 52.9003 34.1689C53.7282 35.4217 54.1421 36.8348 54.1421 38.4084C54.1421 39.982 53.7282 41.4029 52.9003 42.6709C52.0724 43.9237 50.9383 44.9091 49.4978 45.6271C48.0573 46.3452 46.4347 46.7042 44.63 46.7042ZM44.63 43.5417C45.6566 43.5417 46.5838 43.3278 47.4116 42.9001C48.2395 42.457 48.8852 41.8459 49.3488 41.0667C49.829 40.2876 50.069 39.4015 50.069 38.4084C50.069 37.4154 49.829 36.5293 49.3488 35.7501C48.8852 34.971 48.2395 34.3675 47.4116 33.9397C46.5838 33.4967 45.6566 33.2751 44.63 33.2751C43.6035 33.2751 42.6763 33.4967 41.8484 33.9397C41.0205 34.3675 40.3665 34.971 39.8864 35.7501C39.4228 36.5293 39.191 37.4154 39.191 38.4084C39.191 39.4015 39.4228 40.2876 39.8864 41.0667C40.3665 41.8459 41.0205 42.457 41.8484 42.9001C42.6763 43.3278 43.6035 43.5417 44.63 43.5417Z" fill="white"/>
<path d="M72.9862 46.4292L72.9614 36.8043L67.8452 44.7334H66.0322L60.9409 37.0105V46.4292H57.1658V30.3877H60.4938L67.0008 40.3563L73.4084 30.3877H76.7116L76.7612 46.4292H72.9862Z" fill="white"/>
<path d="M89.3052 46.7042C87.5005 46.7042 85.8696 46.3452 84.4126 45.6271C82.9721 44.9091 81.8379 43.9237 81.0101 42.6709C80.1988 41.4029 79.7931 39.982 79.7931 38.4084C79.7931 36.8348 80.1988 35.4217 81.0101 34.1689C81.8379 32.9008 82.9721 31.9078 84.4126 31.1897C85.8696 30.4717 87.5005 30.1127 89.3052 30.1127C91.1099 30.1127 92.7326 30.4717 94.173 31.1897C95.6135 31.9078 96.7477 32.9008 97.5755 34.1689C98.4034 35.4217 98.8173 36.8348 98.8173 38.4084C98.8173 39.982 98.4034 41.4029 97.5755 42.6709C96.7477 43.9237 95.6135 44.9091 94.173 45.6271C92.7326 46.3452 91.1099 46.7042 89.3052 46.7042ZM89.3052 43.5417C90.3318 43.5417 91.259 43.3278 92.0868 42.9001C92.9147 42.457 93.5604 41.8459 94.024 41.0667C94.5042 40.2876 94.7442 39.4015 94.7442 38.4084C94.7442 37.4154 94.5042 36.5293 94.024 35.7501C93.5604 34.971 92.9147 34.3675 92.0868 33.9397C91.259 33.4967 90.3318 33.2751 89.3052 33.2751C88.2787 33.2751 87.3515 33.4967 86.5236 33.9397C85.6958 34.3675 85.0418 34.971 84.5616 35.7501C84.098 36.5293 83.8662 37.4154 83.8662 38.4084C83.8662 39.4015 84.098 40.2876 84.5616 41.0667C85.0418 41.8459 85.6958 42.457 86.5236 42.9001C87.3515 43.3278 88.2787 43.5417 89.3052 43.5417Z" fill="white"/>
<path d="M105.2 33.4126H99.6365V30.3877H114.786V33.4126H109.223V46.4292H105.2V33.4126Z" fill="white"/>
<path d="M116.951 30.3877H120.974V46.4292H116.951V30.3877Z" fill="white"/>
<path d="M133.52 46.7042C131.715 46.7042 130.084 46.3452 128.627 45.6271C127.187 44.9091 126.052 43.9237 125.224 42.6709C124.413 41.4029 124.008 39.982 124.008 38.4084C124.008 36.8348 124.413 35.4217 125.224 34.1689C126.052 32.9008 127.187 31.9078 128.627 31.1897C130.084 30.4717 131.715 30.1127 133.52 30.1127C135.324 30.1127 136.947 30.4717 138.387 31.1897C139.828 31.9078 140.962 32.9008 141.79 34.1689C142.618 35.4217 143.032 36.8348 143.032 38.4084C143.032 39.982 142.618 41.4029 141.79 42.6709C140.962 43.9237 139.828 44.9091 138.387 45.6271C136.947 46.3452 135.324 46.7042 133.52 46.7042ZM133.52 43.5417C134.546 43.5417 135.473 43.3278 136.301 42.9001C137.129 42.457 137.775 41.8459 138.238 41.0667C138.719 40.2876 138.959 39.4015 138.959 38.4084C138.959 37.4154 138.719 36.5293 138.238 35.7501C137.775 34.971 137.129 34.3675 136.301 33.9397C135.473 33.4967 134.546 33.2751 133.52 33.2751C132.493 33.2751 131.566 33.4967 130.738 33.9397C129.91 34.3675 129.256 34.971 128.776 35.7501C128.312 36.5293 128.081 37.4154 128.081 38.4084C128.081 39.4015 128.312 40.2876 128.776 41.0667C129.256 41.8459 129.91 42.457 130.738 42.9001C131.566 43.3278 132.493 43.5417 133.52 43.5417Z" fill="white"/>
<path d="M162 30.3877V46.4292H158.697L150.029 36.6897V46.4292H146.055V30.3877H149.383L158.026 40.1272V30.3877H162Z" fill="white"/>
<defs>
<linearGradient id="paint0_linear" x1="0.422363" y1="0.600708" x2="161.005" y2="16.1392" gradientUnits="userSpaceOnUse">
<stop stop-color="#DA2128"/>
<stop offset="1" stop-color="#F25700"/>
</linearGradient>
<linearGradient id="paint1_linear" x1="0.422363" y1="0.600708" x2="161.005" y2="16.1392" gradientUnits="userSpaceOnUse">
<stop stop-color="#DA2128"/>
<stop offset="1" stop-color="#F25700"/>
</linearGradient>
<linearGradient id="paint2_linear" x1="0.422363" y1="0.600708" x2="161.005" y2="16.1392" gradientUnits="userSpaceOnUse">
<stop stop-color="#DA2128"/>
<stop offset="1" stop-color="#F25700"/>
</linearGradient>
</defs>
</svg>
