<svg width="178" height="45" viewBox="0 0 178 45" fill="none" xmlns="http://www.w3.org/2000/svg">
<path fill-rule="evenodd" clip-rule="evenodd" d="M10.1187 6.314H13.2756V13.0566L16.2482 13.0566H18.6999H19.4052V20.4119H16.2482V16.2136H13.2756V20.4116H10.1187V6.314Z" fill="#D62222"/>
<path fill-rule="evenodd" clip-rule="evenodd" d="M25.9043 6.314H29.0613V13.0566L32.0338 13.0566H34.4855H35.1908V20.4119H32.0338V16.2136H29.0613V20.4116H25.9043V16.2136H25.9043V13.0566H25.9043V6.314Z" fill="#D62222"/>
<path fill-rule="evenodd" clip-rule="evenodd" d="M10.1187 23.6776H13.2756V30.4202L16.2482 30.4202H18.6999H19.4052V37.7755H16.2482V33.5772H13.2756V37.7752H10.1187V23.6776Z" fill="#D62222"/>
<path fill-rule="evenodd" clip-rule="evenodd" d="M25.9043 23.6776H29.0613V30.4202L32.0338 30.4202H34.4855H35.1908V37.7755H32.0338V33.5772H29.0613V37.7752H25.9043V33.5772H25.9043V30.4202H25.9043V23.6776Z" fill="#D62222"/>
<path d="M73.0999 18.3221C71.3802 18.3221 69.8293 17.9524 68.4471 17.2131C67.0649 16.4577 65.98 15.4211 65.1925 14.1032C64.405 12.7692 64.0112 11.2826 64.0112 9.64322C64.0112 8.00388 64.405 6.52527 65.1925 5.20737C65.98 3.8734 67.0649 2.83676 68.4471 2.09745C69.8293 1.34207 71.3802 0.964384 73.0999 0.964384C74.8196 0.964384 76.3705 1.34207 77.7527 2.09745C79.1349 2.83676 80.2198 3.86537 81.0073 5.18326C81.7948 6.50116 82.1886 7.98781 82.1886 9.64322C82.1886 11.2986 81.7948 12.7853 81.0073 14.1032C80.2198 15.4211 79.1349 16.4577 77.7527 17.2131C76.3705 17.9524 74.8196 18.3221 73.0999 18.3221ZM73.0999 15.5738C74.2249 15.5738 75.2375 15.3246 76.1375 14.8264C77.0375 14.3121 77.7447 13.6049 78.259 12.7049C78.7733 11.7888 79.0304 10.7683 79.0304 9.64322C79.0304 8.51819 78.7733 7.50565 78.259 6.60563C77.7447 5.68953 77.0375 4.98236 76.1375 4.48413C75.2375 3.96983 74.2249 3.71268 73.0999 3.71268C71.9749 3.71268 70.9623 3.96983 70.0623 4.48413C69.1623 4.98236 68.4551 5.68953 67.9408 6.60563C67.4265 7.50565 67.1694 8.51819 67.1694 9.64322C67.1694 10.7683 67.4265 11.7888 67.9408 12.7049C68.4551 13.6049 69.1623 14.3121 70.0623 14.8264C70.9623 15.3246 71.9749 15.5738 73.0999 15.5738Z" fill="white"/>
<path d="M102.336 11.6201C102.336 13.613 101.669 15.18 100.335 16.3211C99.0173 17.4622 97.1289 18.1131 94.6699 18.2738V22.7579H91.8251V18.2979C89.3661 18.1372 87.4777 17.4863 86.1598 16.3452C84.8419 15.2041 84.1829 13.6291 84.1829 11.6201C84.1829 9.62715 84.8419 8.07621 86.1598 6.96725C87.4777 5.84221 89.3661 5.19933 91.8251 5.03862V0.192932H94.6699V5.03862C97.1289 5.19933 99.0173 5.84221 100.335 6.96725C101.669 8.09228 102.336 9.64322 102.336 11.6201ZM87.1482 11.6201C87.1482 12.8576 87.5259 13.8219 88.2813 14.513C89.0527 15.2041 90.234 15.622 91.8251 15.7666V7.59405C90.234 7.72263 89.0527 8.12442 88.2813 8.79944C87.5259 9.47446 87.1482 10.4147 87.1482 11.6201ZM94.6699 15.7666C97.82 15.4773 99.395 14.0951 99.395 11.6201C99.395 10.3986 99.0012 9.45839 98.2137 8.79944C97.4423 8.12442 96.261 7.72263 94.6699 7.59405V15.7666Z" fill="white"/>
<path d="M105.257 5.20737H108.27V13.6933L115.382 5.20737H118.13V18.081H115.117V9.595L108.029 18.081H105.257V5.20737Z" fill="white"/>
<path d="M128.042 18.2497C126.708 18.2497 125.511 17.9685 124.45 17.406C123.389 16.8434 122.562 16.064 121.967 15.0675C121.372 14.055 121.075 12.9139 121.075 11.6442C121.075 10.3745 121.372 9.24142 121.967 8.24496C122.562 7.2485 123.381 6.46902 124.426 5.9065C125.487 5.34398 126.692 5.06272 128.042 5.06272C129.312 5.06272 130.421 5.31987 131.369 5.83418C132.334 6.34848 133.057 7.08779 133.539 8.0521L131.225 9.40214C130.855 8.80748 130.389 8.3655 129.826 8.07621C129.28 7.77084 128.677 7.61816 128.018 7.61816C126.893 7.61816 125.961 7.98781 125.222 8.72712C124.482 9.45036 124.113 10.4227 124.113 11.6442C124.113 12.8656 124.474 13.846 125.198 14.5853C125.937 15.3086 126.877 15.6702 128.018 15.6702C128.677 15.6702 129.28 15.5255 129.826 15.2362C130.389 14.9309 130.855 14.4809 131.225 13.8862L133.539 15.2362C133.041 16.2006 132.309 16.9479 131.345 17.4783C130.397 17.9926 129.296 18.2497 128.042 18.2497Z" fill="white"/>
<path d="M136.192 5.20737H139.206V10.4388H145.691V5.20737H148.704V18.081H145.691V12.9942H139.206V18.081H136.192V5.20737Z" fill="white"/>
<path d="M157.54 5.06272C159.437 5.06272 160.883 5.52077 161.88 6.43687C162.892 7.3369 163.398 8.70301 163.398 10.5352V18.081H160.554V16.514C160.184 17.0765 159.654 17.5104 158.963 17.8158C158.288 18.1051 157.468 18.2497 156.504 18.2497C155.539 18.2497 154.695 18.089 153.972 17.7676C153.249 17.4301 152.686 16.972 152.285 16.3934C151.899 15.7988 151.706 15.1318 151.706 14.3925C151.706 13.2353 152.132 12.3112 152.984 11.6201C153.852 10.9129 155.21 10.5593 157.058 10.5593H160.385V10.3665C160.385 9.46643 160.112 8.77534 159.565 8.29318C159.035 7.81102 158.239 7.56994 157.179 7.56994C156.455 7.56994 155.74 7.68245 155.033 7.90745C154.342 8.13246 153.755 8.44586 153.273 8.84766L152.092 6.65384C152.767 6.13954 153.578 5.74578 154.527 5.47256C155.475 5.19933 156.479 5.06272 157.54 5.06272ZM157.13 16.0559C157.886 16.0559 158.553 15.8872 159.131 15.5496C159.726 15.1961 160.144 14.6978 160.385 14.055V12.5603H157.275C155.539 12.5603 154.671 13.1308 154.671 14.2719C154.671 14.8184 154.888 15.2523 155.322 15.5738C155.756 15.8952 156.359 16.0559 157.13 16.0559Z" fill="white"/>
<path d="M178 5.20737V18.081H175.3V14.1996H171.901L169.273 18.081H166.043L169.08 13.7898C168.148 13.4683 167.433 12.9781 166.935 12.3192C166.452 11.6442 166.211 10.8165 166.211 9.83608C166.211 8.35747 166.734 7.21636 167.778 6.41276C168.823 5.60917 170.261 5.20737 172.094 5.20737H178ZM172.19 7.7387C170.245 7.7387 169.273 8.46997 169.273 9.93251C169.273 11.379 170.213 12.1022 172.094 12.1022H175.3V7.7387H172.19Z" fill="white"/>
<path d="M77.6081 42.1889V33.6547L73.2687 40.8388H71.9668L67.6997 33.6306V42.1889H64.9514V29.3152H68.1096L72.6901 37.3673L77.4875 29.3152H80.3082L80.3323 42.1889H77.6081Z" fill="white"/>
<path d="M96.4282 35.8244C96.4282 36.0333 96.4122 36.3306 96.38 36.7164H86.2788C86.4556 37.6646 86.9136 38.42 87.653 38.9825C88.4083 39.5289 89.3405 39.8022 90.4495 39.8022C91.8638 39.8022 93.029 39.3361 93.9451 38.4039L95.5603 40.2602C94.9818 40.9513 94.2505 41.4737 93.3665 41.8272C92.4826 42.1808 91.4861 42.3576 90.3771 42.3576C88.9628 42.3576 87.7172 42.0763 86.6404 41.5138C85.5636 40.9513 84.7279 40.1718 84.1332 39.1754C83.5546 38.1628 83.2653 37.0217 83.2653 35.752C83.2653 34.4984 83.5466 33.3734 84.1091 32.3769C84.6877 31.3644 85.4832 30.5769 86.4958 30.0144C87.5083 29.4519 88.6494 29.1706 89.9191 29.1706C91.1727 29.1706 92.2897 29.4519 93.2701 30.0144C94.2666 30.5608 95.038 31.3403 95.5844 32.3528C96.147 33.3493 96.4282 34.5065 96.4282 35.8244ZM89.9191 31.5814C88.9548 31.5814 88.1351 31.8707 87.4601 32.4493C86.8011 33.0118 86.3993 33.7672 86.2547 34.7154H93.5594C93.4308 33.7832 93.037 33.0279 92.3781 32.4493C91.7192 31.8707 90.8995 31.5814 89.9191 31.5814Z" fill="white"/>
<path d="M106.691 29.9421C107.913 29.9421 108.99 30.2072 109.922 30.7376C110.854 31.2519 111.577 31.9751 112.092 32.9073C112.622 33.8395 112.887 34.9083 112.887 36.1137C112.887 37.3512 112.598 38.4521 112.019 39.4164C111.441 40.3647 110.629 41.104 109.584 41.6344C108.54 42.1647 107.35 42.4299 106.016 42.4299C103.782 42.4299 102.055 41.6906 100.833 40.212C99.6117 38.7334 99.001 36.6039 99.001 33.8234C99.001 31.2358 99.5555 29.1867 100.664 27.6759C101.773 26.1651 103.469 25.1687 105.751 24.6865L111.73 23.4088L112.164 26.1089L106.74 27.2179C105.181 27.5393 104.015 28.0857 103.244 28.8572C102.473 29.6286 102.023 30.7135 101.894 32.1118C102.473 31.4207 103.172 30.8903 103.991 30.5206C104.811 30.1349 105.711 29.9421 106.691 29.9421ZM106.089 39.995C107.198 39.995 108.09 39.6415 108.765 38.9343C109.456 38.2111 109.801 37.295 109.801 36.186C109.801 35.077 109.456 34.185 108.765 33.51C108.09 32.835 107.198 32.4975 106.089 32.4975C104.964 32.4975 104.056 32.835 103.365 33.51C102.673 34.185 102.328 35.077 102.328 36.186C102.328 37.311 102.673 38.2271 103.365 38.9343C104.072 39.6415 104.98 39.995 106.089 39.995Z" fill="white"/>
<path d="M127.858 35.8244C127.858 36.0333 127.842 36.3306 127.81 36.7164H117.709C117.885 37.6646 118.343 38.42 119.083 38.9825C119.838 39.5289 120.77 39.8022 121.879 39.8022C123.293 39.8022 124.459 39.3361 125.375 38.4039L126.99 40.2602C126.411 40.9513 125.68 41.4737 124.796 41.8272C123.912 42.1808 122.916 42.3576 121.807 42.3576C120.393 42.3576 119.147 42.0763 118.07 41.5138C116.993 40.9513 116.158 40.1718 115.563 39.1754C114.984 38.1628 114.695 37.0217 114.695 35.752C114.695 34.4984 114.976 33.3734 115.539 32.3769C116.117 31.3644 116.913 30.5769 117.925 30.0144C118.938 29.4519 120.079 29.1706 121.349 29.1706C122.602 29.1706 123.719 29.4519 124.7 30.0144C125.696 30.5608 126.468 31.3403 127.014 32.3528C127.577 33.3493 127.858 34.5065 127.858 35.8244ZM121.349 31.5814C120.384 31.5814 119.565 31.8707 118.89 32.4493C118.231 33.0118 117.829 33.7672 117.684 34.7154H124.989C124.861 33.7832 124.467 33.0279 123.808 32.4493C123.149 31.8707 122.329 31.5814 121.349 31.5814Z" fill="white"/>
<path d="M142.657 29.3152V42.1889H139.644V31.8707H134.822L134.702 34.4261C134.621 36.1297 134.461 37.5601 134.22 38.7173C133.995 39.8584 133.601 40.7665 133.038 41.4415C132.492 42.1005 131.736 42.4299 130.772 42.4299C130.322 42.4299 129.768 42.3415 129.109 42.1647L129.253 39.6334C129.478 39.6816 129.671 39.7057 129.832 39.7057C130.443 39.7057 130.901 39.4647 131.206 38.9825C131.511 38.4843 131.704 37.8977 131.785 37.2226C131.881 36.5315 131.961 35.5512 132.026 34.2815L132.243 29.3152H142.657Z" fill="white"/>
<path d="M153.177 33.5582C154.816 33.5582 156.07 33.9279 156.937 34.6672C157.821 35.4065 158.263 36.4512 158.263 37.8012C158.263 39.2155 157.781 40.3084 156.817 41.0799C155.853 41.8513 154.495 42.229 152.743 42.213L146.716 42.1889V29.3152H149.729V33.5341L153.177 33.5582ZM152.478 39.995C153.361 40.0111 154.037 39.8263 154.503 39.4406C154.969 39.0548 155.202 38.4923 155.202 37.753C155.202 37.0298 154.977 36.4994 154.527 36.1619C154.077 35.8244 153.394 35.6476 152.478 35.6315L149.729 35.6074V39.9709L152.478 39.995Z" fill="white"/>
<path fill-rule="evenodd" clip-rule="evenodd" d="M42.5435 2.30194H2.94922V41.8962H42.5435V2.30194ZM0.647461 0.000183105V44.198H44.8452V0.000183105H0.647461Z" fill="#D62222"/>
</svg>
